<svg width="52" height="52" viewBox="0 0 52 52" fill="none" xmlns="http://www.w3.org/2000/svg">
<path d="M50.4169 1.06642C49.9564 0.606488 49.332 0.347656 48.6806 0.347656C48.0293 0.347656 47.4048 0.606473 46.9443 1.06642L41.8742 6.13657C36.8382 1.99257 30.4009 -0.0545594 23.8967 0.418463C17.3924 0.892115 11.3196 3.85 6.93718 8.6791C2.55433 13.5082 0.197552 19.8387 0.355812 26.3582C0.513501 32.8779 3.17376 39.0867 7.78508 43.698C12.3964 48.3093 18.6054 50.9696 25.1249 51.1273C31.6445 51.2855 37.975 48.9287 42.804 44.5459C47.6331 40.1636 50.5909 34.0908 51.0646 27.5864C51.5377 21.0821 49.4905 14.6448 45.3465 9.60891L50.4167 4.53876C50.8766 4.07826 51.1354 3.45377 51.1354 2.80245C51.1354 2.15112 50.8766 1.52662 50.4167 1.06613L50.4169 1.06642ZM46.2232 25.737C46.2278 31.9596 43.4025 37.8462 38.5455 41.7356C33.689 45.6253 27.327 47.0955 21.2554 45.7309C15.1842 44.366 10.0632 40.3158 7.33794 34.7215C4.61199 29.1281 4.57777 22.5986 7.24424 16.9766C9.91066 11.3544 14.9889 7.24994 21.0451 5.82151C27.1008 4.39314 33.4783 5.7958 38.3761 9.63348L33.8385 14.1711L37.3112 17.6437L41.8488 13.1061L41.8493 13.1067C44.6862 16.7051 46.2271 21.1547 46.223 25.737L46.2232 25.737Z" fill="black"/>
<path d="M25.7463 16.7266C23.3569 16.7266 21.0653 17.6761 19.3752 19.3656C17.6856 21.0557 16.7361 23.3474 16.7361 25.7368C16.7361 28.1262 17.6857 30.4179 19.3752 32.108C21.0653 33.7975 23.3569 34.7471 25.7463 34.7471C28.1357 34.7471 30.4274 33.7975 32.1175 32.108C33.807 30.4179 34.7566 28.1262 34.7566 25.7368C34.7566 23.3474 33.807 21.0557 32.1175 19.3656C30.4274 17.6761 28.1357 16.7266 25.7463 16.7266ZM25.7463 29.8323C24.6602 29.8323 23.6186 29.4009 22.8501 28.633C22.0822 27.8645 21.6509 26.823 21.6509 25.7368C21.6509 24.6506 22.0822 23.6091 22.8501 22.8406C23.6186 22.0727 24.6602 21.6413 25.7463 21.6413C26.8325 21.6413 27.8741 22.0727 28.6425 22.8406C29.4104 23.609 29.8418 24.6506 29.8418 25.7368C29.8418 26.823 29.4104 27.8645 28.6425 28.633C27.8741 29.4009 26.8325 29.8323 25.7463 29.8323Z" fill="black"/>
</svg>
