<svg width="124" height="21" viewBox="0 0 124 21" fill="none" xmlns="http://www.w3.org/2000/svg">
<path d="M6.82511 19.7849H0.134923V0.912314H6.8804C8.77872 0.912314 10.4129 1.29013 11.7829 2.04578C13.1528 2.79527 14.2064 3.87344 14.9436 5.28029C15.687 6.68713 16.0587 8.37043 16.0587 10.3302C16.0587 12.2961 15.687 13.9855 14.9436 15.3985C14.2064 16.8115 13.1467 17.8958 11.7644 18.6515C10.3883 19.4071 8.74186 19.7849 6.82511 19.7849ZM4.12508 16.3661H6.65924C7.83878 16.3661 8.83094 16.1572 9.63573 15.7395C10.4467 15.3156 11.0549 14.6613 11.4603 13.7766C11.8719 12.8858 12.0777 11.737 12.0777 10.3302C12.0777 8.93563 11.8719 7.79602 11.4603 6.91137C11.0549 6.02671 10.4497 5.37551 9.64494 4.95776C8.84015 4.54001 7.84799 4.33113 6.66845 4.33113H4.12508V16.3661ZM26.5708 0.912314H30.5149V14.0715C30.5149 15.2879 30.2415 16.3446 29.6948 17.2415C29.1542 18.1385 28.4016 18.8296 27.4371 19.3149C26.4725 19.8003 25.3514 20.0429 24.0735 20.0429C22.937 20.0429 21.9049 19.8433 20.9773 19.444C20.0557 19.0385 19.3247 18.4241 18.7841 17.6009C18.2434 16.7716 17.9762 15.7303 17.9823 14.477H21.9541C21.9663 14.9746 22.0677 15.4016 22.2582 15.7579C22.4547 16.1081 22.722 16.3784 23.0599 16.5688C23.4039 16.7531 23.8094 16.8453 24.2763 16.8453C24.7677 16.8453 25.1824 16.7408 25.5203 16.532C25.8643 16.3169 26.1254 16.0036 26.3036 15.592C26.4818 15.1804 26.5708 14.6736 26.5708 14.0715V0.912314ZM56.4717 7.51957H52.4354C52.3617 6.99738 52.2112 6.53355 51.9839 6.12808C51.7566 5.71647 51.4648 5.3663 51.1084 5.07756C50.7521 4.78881 50.3405 4.56765 49.8736 4.41407C49.4129 4.26048 48.9122 4.18369 48.3716 4.18369C47.3947 4.18369 46.5439 4.42635 45.819 4.91168C45.094 5.39087 44.5319 6.09122 44.1326 7.01273C43.7333 7.9281 43.5336 9.04006 43.5336 10.3486C43.5336 11.694 43.7333 12.8244 44.1326 13.7398C44.5381 14.6552 45.1032 15.3463 45.8282 15.8132C46.5531 16.2801 47.3917 16.5135 48.3439 16.5135C48.8784 16.5135 49.3729 16.4429 49.8275 16.3016C50.2883 16.1603 50.6968 15.9545 51.0532 15.6842C51.4095 15.4077 51.7044 15.0729 51.9378 14.6797C52.1774 14.2865 52.3433 13.8381 52.4354 13.3343L56.4717 13.3527C56.3672 14.219 56.1061 15.0545 55.6884 15.8593C55.2768 16.6579 54.7208 17.3736 54.0204 18.0064C53.3262 18.633 52.4969 19.1306 51.5323 19.4992C50.574 19.8617 49.4897 20.0429 48.2794 20.0429C46.5961 20.0429 45.091 19.662 43.764 18.9003C42.4431 18.1385 41.3988 17.0357 40.6308 15.592C39.8691 14.1483 39.4882 12.4005 39.4882 10.3486C39.4882 8.29057 39.8752 6.53969 40.6493 5.09599C41.4233 3.65228 42.4739 2.55261 43.8008 1.79697C45.1278 1.03518 46.6207 0.65429 48.2794 0.65429C49.3729 0.65429 50.3866 0.807876 51.3204 1.11505C52.2603 1.42222 53.0928 1.87069 53.8177 2.46046C54.5426 3.04408 55.1324 3.75979 55.587 4.60758C56.0478 5.45538 56.3426 6.42604 56.4717 7.51957ZM63.1849 11.6019V19.7849H59.2592V0.912314H63.0743V8.12777H63.2402C63.5596 7.29226 64.0757 6.63798 64.7883 6.16494C65.501 5.68575 66.3948 5.44616 67.4699 5.44616C68.4529 5.44616 69.3099 5.66118 70.0409 6.09122C70.7782 6.51512 71.3495 7.12639 71.755 7.92503C72.1666 8.71753 72.3693 9.66669 72.3632 10.7725V19.7849H68.4375V11.4729C68.4437 10.6005 68.2225 9.92165 67.774 9.43631C67.3317 8.95098 66.7112 8.70832 65.9126 8.70832C65.3781 8.70832 64.905 8.82197 64.4934 9.04928C64.088 9.27659 63.7685 9.60833 63.5351 10.0445C63.3078 10.4746 63.191 10.9937 63.1849 11.6019ZM79.4888 20.0522C78.5857 20.0522 77.7809 19.8955 77.0744 19.5822C76.3679 19.2627 75.8088 18.7927 75.3972 18.1723C74.9918 17.5456 74.789 16.7654 74.789 15.8316C74.789 15.0453 74.9334 14.3848 75.2222 13.8504C75.5109 13.3159 75.9041 12.8858 76.4017 12.5602C76.8993 12.2346 77.4645 11.9889 78.0973 11.823C78.7362 11.6572 79.4058 11.5404 80.1062 11.4729C80.9294 11.3869 81.5929 11.307 82.0966 11.2333C82.6004 11.1534 82.9659 11.0367 83.1932 10.8831C83.4205 10.7295 83.5342 10.5022 83.5342 10.2012V10.1459C83.5342 9.56226 83.3499 9.11071 82.9813 8.79125C82.6188 8.4718 82.1028 8.31207 81.4332 8.31207C80.7267 8.31207 80.1645 8.46873 79.7468 8.78204C79.329 9.08921 79.0526 9.47625 78.9174 9.94315L75.2867 9.64826C75.471 8.78818 75.8334 8.04483 76.374 7.4182C76.9147 6.78543 77.6119 6.3001 78.4659 5.96221C79.326 5.61818 80.3212 5.44616 81.4516 5.44616C82.2379 5.44616 82.9905 5.53831 83.7093 5.72261C84.4342 5.90692 85.0762 6.19259 85.6353 6.57962C86.2004 6.96666 86.6458 7.46428 86.9714 8.07247C87.297 8.67453 87.4599 9.39638 87.4599 10.238V19.7849H83.7369V17.8221H83.6264C83.399 18.2644 83.0949 18.6545 82.7141 18.9924C82.3332 19.3242 81.8755 19.5853 81.341 19.7757C80.8065 19.96 80.1891 20.0522 79.4888 20.0522ZM80.613 17.3429C81.1905 17.3429 81.7004 17.2292 82.1427 17.0019C82.585 16.7685 82.9321 16.4552 83.184 16.062C83.4359 15.6688 83.5618 15.2234 83.5618 14.7258V13.2237C83.439 13.3036 83.27 13.3773 83.055 13.4449C82.8461 13.5063 82.6096 13.5647 82.3455 13.62C82.0813 13.6691 81.8171 13.7152 81.5529 13.7582C81.2888 13.7951 81.0492 13.8289 80.8342 13.8596C80.3734 13.9272 79.971 14.0347 79.627 14.1821C79.283 14.3296 79.0157 14.5292 78.8253 14.7811C78.6348 15.0268 78.5396 15.334 78.5396 15.7026C78.5396 16.2371 78.7331 16.6456 79.1202 16.9282C79.5133 17.2047 80.0109 17.3429 80.613 17.3429ZM90.5055 19.7849V5.63046H94.3113V8.10012H94.4587C94.7168 7.22161 95.1499 6.55812 95.7581 6.10965C96.3663 5.65504 97.0666 5.42773 97.8591 5.42773C98.0557 5.42773 98.2677 5.44002 98.495 5.46459C98.7223 5.48917 98.9219 5.52295 99.094 5.56596V9.04928C98.9097 8.99399 98.6547 8.94484 98.3291 8.90184C98.0035 8.85883 97.7055 8.83733 97.4352 8.83733C96.8578 8.83733 96.3417 8.96327 95.8871 9.21515C95.4386 9.46089 95.0823 9.80492 94.8181 10.2472C94.5601 10.6896 94.4311 11.1995 94.4311 11.777V19.7849H90.5055ZM109.362 5.63046V8.57931H100.838V5.63046H109.362ZM102.773 2.23929H106.699V15.4354C106.699 15.7978 106.754 16.0804 106.865 16.2832C106.975 16.4798 107.129 16.618 107.325 16.6978C107.528 16.7777 107.762 16.8176 108.026 16.8176C108.21 16.8176 108.394 16.8023 108.579 16.7716C108.763 16.7347 108.904 16.7071 109.003 16.6886L109.62 19.6098C109.423 19.6713 109.147 19.7419 108.791 19.8218C108.434 19.9078 108.001 19.96 107.491 19.9784C106.545 20.0153 105.716 19.8894 105.003 19.6006C104.297 19.3119 103.747 18.8634 103.354 18.2552C102.96 17.647 102.767 16.8791 102.773 15.9514V2.23929ZM123.519 9.66669L119.925 9.88786C119.863 9.58068 119.731 9.30423 119.529 9.05849C119.326 8.80661 119.059 8.60695 118.727 8.45951C118.401 8.30592 118.011 8.22913 117.556 8.22913C116.948 8.22913 116.435 8.35814 116.018 8.61617C115.6 8.86805 115.391 9.20594 115.391 9.62983C115.391 9.96772 115.526 10.2534 115.796 10.4868C116.067 10.7203 116.531 10.9077 117.188 11.049L119.75 11.565C121.126 11.8476 122.152 12.3022 122.828 12.9289C123.503 13.5555 123.841 14.3787 123.841 15.3985C123.841 16.3262 123.568 17.1402 123.021 17.8405C122.48 18.5409 121.737 19.0876 120.791 19.4808C119.851 19.8678 118.767 20.0614 117.538 20.0614C115.664 20.0614 114.171 19.6713 113.06 18.891C111.954 18.1047 111.306 17.0357 111.115 15.6842L114.976 15.4814C115.093 16.0528 115.376 16.489 115.824 16.79C116.273 17.0849 116.847 17.2323 117.547 17.2323C118.235 17.2323 118.788 17.1002 119.206 16.8361C119.63 16.5658 119.845 16.2187 119.851 15.7948C119.845 15.4384 119.694 15.1466 119.4 14.9193C119.105 14.6859 118.65 14.5077 118.036 14.3848L115.584 13.8964C114.202 13.62 113.173 13.1408 112.497 12.4589C111.828 11.777 111.493 10.9077 111.493 9.851C111.493 8.94177 111.739 8.15848 112.23 7.50114C112.728 6.84379 113.425 6.33696 114.322 5.98064C115.225 5.62432 116.282 5.44616 117.492 5.44616C119.28 5.44616 120.687 5.82398 121.713 6.57962C122.745 7.33526 123.347 8.36429 123.519 9.66669Z" fill="white"/>
</svg>
