<svg width="39" height="39" viewBox="0 0 39 39" fill="none" xmlns="http://www.w3.org/2000/svg">
<path d="M37.51 1.19974C37.1712 0.86134 36.7117 0.670898 36.2325 0.670898C35.7533 0.670898 35.2938 0.861329 34.9549 1.19974L31.2245 4.93022C27.5192 1.88118 22.7828 0.374959 17.9971 0.722996C13.2114 1.0715 8.74325 3.24783 5.51879 6.80095C2.29401 10.3541 0.559962 15.0119 0.676405 19.8088C0.792428 24.6057 2.74978 29.174 6.14265 32.5669C9.53553 35.9598 14.1039 37.9171 18.9008 38.0331C23.6978 38.1496 28.3556 36.4155 31.9086 33.1907C35.4617 29.9664 37.638 25.4982 37.9865 20.7124C38.3346 15.9268 36.8284 11.1904 33.7793 7.48507L37.5098 3.7546C37.8482 3.41578 38.0386 2.95629 38.0386 2.47706C38.0386 1.99784 37.8482 1.53834 37.5098 1.19953L37.51 1.19974ZM34.4244 19.3517C34.4277 23.9301 32.349 28.2613 28.7753 31.123C25.202 33.985 20.5211 35.0666 16.0537 34.0627C11.5867 33.0584 7.81881 30.0783 5.81366 25.9623C3.80799 21.8467 3.7828 17.0425 5.74472 12.906C7.7066 8.76939 11.443 5.74941 15.899 4.69841C20.3546 3.64745 25.047 4.67949 28.6507 7.50315L25.3121 10.8418L27.8671 13.3969L31.2058 10.0582L31.2062 10.0586C33.2935 12.7063 34.4272 15.9801 34.4242 19.3517L34.4244 19.3517Z" fill="white"/>
<path d="M19.358 12.7223C17.6 12.7223 15.9138 13.421 14.6703 14.664C13.4272 15.9076 12.7285 17.5937 12.7285 19.3518C12.7285 21.1098 13.4272 22.796 14.6703 24.0395C15.9138 25.2826 17.6 25.9813 19.358 25.9813C21.1161 25.9813 22.8022 25.2826 24.0457 24.0395C25.2888 22.796 25.9875 21.1098 25.9875 19.3518C25.9875 17.5937 25.2888 15.9076 24.0457 14.664C22.8022 13.4209 21.1161 12.7223 19.358 12.7223V12.7223ZM19.358 22.3651C18.5589 22.3651 17.7925 22.0477 17.2271 21.4827C16.6621 20.9173 16.3447 20.1509 16.3447 19.3518C16.3447 18.5526 16.6621 17.7862 17.2271 17.2208C17.7925 16.6558 18.5588 16.3384 19.358 16.3384C20.1572 16.3384 20.9235 16.6558 21.489 17.2208C22.054 17.7862 22.3713 18.5526 22.3713 19.3518C22.3713 20.1509 22.054 20.9173 21.489 21.4827C20.9235 22.0477 20.1572 22.3651 19.358 22.3651Z" fill="white"/>
</svg>
