<svg width="169" height="27" viewBox="0 0 169 27" fill="none" xmlns="http://www.w3.org/2000/svg">
<path d="M9.38661 26.5801H0.293864V0.930028H9.46175C12.0418 0.930028 14.2628 1.44353 16.1248 2.47053C17.9867 3.48919 19.4187 4.95455 20.4206 6.86661C21.4309 8.77868 21.9361 11.0665 21.9361 13.73C21.9361 16.4019 21.4309 18.698 20.4206 20.6184C19.4187 22.5389 17.9784 24.0126 16.0997 25.0396C14.2294 26.0666 11.9917 26.5801 9.38661 26.5801ZM5.71695 21.9335H9.16117C10.7643 21.9335 12.1128 21.6496 13.2066 21.0818C14.3087 20.5057 15.1353 19.6165 15.6864 18.4141C16.2458 17.2034 16.5255 15.6421 16.5255 13.73C16.5255 11.8346 16.2458 10.2858 15.6864 9.08344C15.1353 7.88109 14.3129 6.99603 13.2191 6.42826C12.1253 5.86048 10.7768 5.5766 9.17369 5.5766H5.71695V21.9335ZM36.2233 0.930028H41.5838V18.8149C41.5838 20.4682 41.2122 21.9043 40.4691 23.1233C39.7344 24.3424 38.7115 25.2817 37.4006 25.9413C36.0898 26.601 34.5659 26.9308 32.8292 26.9308C31.2845 26.9308 29.8818 26.6594 28.621 26.1167C27.3686 25.5656 26.375 24.7306 25.6402 23.6118C24.9054 22.4846 24.5422 21.0693 24.5506 19.366H29.9486C29.9653 20.0423 30.1031 20.6226 30.3619 21.1069C30.6291 21.5828 30.9923 21.9502 31.4515 22.209C31.9191 22.4595 32.4702 22.5848 33.1048 22.5848C33.7727 22.5848 34.3363 22.4428 34.7956 22.159C35.2631 21.8667 35.618 21.4409 35.8601 20.8815C36.1023 20.322 36.2233 19.6332 36.2233 18.8149V0.930028ZM76.862 9.91005H71.3763C71.2761 9.20033 71.0716 8.56994 70.7626 8.01886C70.4537 7.45943 70.0571 6.98351 69.5728 6.59107C69.0885 6.19864 68.5291 5.89805 67.8945 5.68931C67.2683 5.48057 66.5878 5.3762 65.853 5.3762C64.5254 5.3762 63.369 5.70601 62.3838 6.36563C61.3985 7.0169 60.6345 7.96876 60.0918 9.22121C59.5491 10.4653 59.2777 11.9766 59.2777 13.7551C59.2777 15.5836 59.5491 17.12 60.0918 18.364C60.6429 19.6081 61.411 20.5475 62.3963 21.182C63.3815 21.8166 64.5213 22.1339 65.8155 22.1339C66.5419 22.1339 67.214 22.0379 67.8319 21.8458C68.4581 21.6538 69.0134 21.3741 69.4976 21.0067C69.9819 20.631 70.3827 20.1759 70.7 19.6415C71.0256 19.1072 71.2511 18.4976 71.3763 17.813L76.862 17.838C76.7201 19.0153 76.3652 20.1509 75.7974 21.2447C75.238 22.3301 74.4824 23.3028 73.5305 24.1629C72.587 25.0145 71.4598 25.6908 70.1489 26.1918C68.8464 26.6844 67.3727 26.9308 65.7278 26.9308C63.44 26.9308 61.3943 26.4131 59.5908 25.3777C57.7956 24.3424 56.3762 22.8436 55.3325 20.8815C54.2972 18.9193 53.7795 16.5438 53.7795 13.7551C53.7795 10.9579 54.3055 8.57829 55.3576 6.61612C56.4096 4.65396 57.8374 3.15938 59.6409 2.13237C61.4444 1.09702 63.4734 0.579344 65.7278 0.579344C67.214 0.579344 68.5917 0.788084 69.8609 1.20557C71.1383 1.62305 72.2697 2.23257 73.255 3.03413C74.2402 3.82735 75.0418 4.80008 75.6597 5.95233C76.2859 7.10458 76.6867 8.42382 76.862 9.91005ZM85.9861 15.4584V26.5801H80.6507V0.930028H85.8358V10.7367H86.0612C86.4954 9.60111 87.1968 8.71188 88.1653 8.06896C89.1339 7.41769 90.3488 7.09205 91.8099 7.09205C93.1459 7.09205 94.3106 7.38429 95.3043 7.96876C96.3062 8.54489 97.0827 9.37567 97.6338 10.4611C98.1932 11.5382 98.4688 12.8282 98.4604 14.3312V26.5801H93.125V15.283C93.1334 14.0974 92.8328 13.1748 92.2232 12.5151C91.6221 11.8555 90.7788 11.5257 89.6933 11.5257C88.9669 11.5257 88.324 11.6802 87.7645 11.9891C87.2135 12.298 86.7793 12.7489 86.462 13.3417C86.1531 13.9262 85.9944 14.6318 85.9861 15.4584ZM108.145 26.9433C106.918 26.9433 105.824 26.7304 104.864 26.3045C103.903 25.8704 103.144 25.2316 102.584 24.3883C102.033 23.5366 101.757 22.4762 101.757 21.2071C101.757 20.1383 101.954 19.2408 102.346 18.5143C102.739 17.7879 103.273 17.2034 103.949 16.7609C104.626 16.3184 105.394 15.9844 106.254 15.759C107.122 15.5335 108.032 15.3749 108.984 15.283C110.103 15.1661 111.005 15.0576 111.689 14.9574C112.374 14.8489 112.871 14.6902 113.18 14.4815C113.489 14.2727 113.643 13.9638 113.643 13.5547V13.4795C113.643 12.6863 113.393 12.0726 112.892 11.6384C112.399 11.2042 111.698 10.9872 110.788 10.9872C109.827 10.9872 109.063 11.2001 108.496 11.6259C107.928 12.0434 107.552 12.5694 107.368 13.204L102.434 12.8032C102.684 11.6342 103.177 10.6239 103.912 9.77228C104.646 8.91227 105.594 8.25265 106.755 7.79342C107.924 7.32584 109.276 7.09205 110.813 7.09205C111.881 7.09205 112.904 7.2173 113.881 7.46778C114.866 7.71827 115.739 8.10653 116.499 8.63256C117.267 9.15858 117.872 9.8349 118.315 10.6615C118.757 11.4798 118.979 12.4609 118.979 13.6048V26.5801H113.919V23.9124H113.768C113.459 24.5135 113.046 25.0437 112.528 25.503C112.011 25.9539 111.389 26.3087 110.662 26.5676C109.936 26.818 109.097 26.9433 108.145 26.9433ZM109.673 23.2611C110.458 23.2611 111.151 23.1066 111.752 22.7977C112.353 22.4804 112.825 22.0546 113.167 21.5202C113.51 20.9858 113.681 20.3805 113.681 19.7042V17.6627C113.514 17.7712 113.284 17.8714 112.992 17.9633C112.708 18.0468 112.387 18.1261 112.028 18.2012C111.668 18.268 111.309 18.3306 110.95 18.3891C110.591 18.4392 110.266 18.4851 109.974 18.5269C109.347 18.6187 108.8 18.7648 108.333 18.9652C107.865 19.1656 107.502 19.437 107.243 19.7793C106.984 20.1133 106.855 20.5308 106.855 21.0318C106.855 21.7582 107.118 22.3134 107.644 22.6975C108.178 23.0732 108.855 23.2611 109.673 23.2611ZM123.118 26.5801V7.34254H128.29V10.6991H128.491C128.842 9.50509 129.43 8.60333 130.257 7.99381C131.083 7.37594 132.035 7.067 133.112 7.067C133.38 7.067 133.668 7.0837 133.977 7.1171C134.286 7.1505 134.557 7.19642 134.791 7.25487V11.9891C134.54 11.914 134.194 11.8472 133.751 11.7887C133.309 11.7303 132.904 11.701 132.536 11.701C131.751 11.701 131.05 11.8722 130.432 12.2145C129.823 12.5485 129.338 13.0161 128.979 13.6173C128.629 14.2185 128.453 14.9115 128.453 15.6963V26.5801H123.118ZM148.746 7.34254V11.3504H137.161V7.34254H148.746ZM139.791 2.73355H145.126V20.6685C145.126 21.1612 145.202 21.5453 145.352 21.8208C145.502 22.088 145.711 22.2758 145.978 22.3844C146.254 22.4929 146.571 22.5472 146.93 22.5472C147.18 22.5472 147.431 22.5263 147.681 22.4846C147.932 22.4345 148.124 22.3969 148.258 22.3719L149.097 26.3421C148.83 26.4256 148.454 26.5216 147.97 26.6302C147.485 26.7471 146.897 26.818 146.204 26.8431C144.918 26.8932 143.791 26.722 142.822 26.3296C141.862 25.9372 141.114 25.3276 140.58 24.501C140.046 23.6744 139.783 22.6307 139.791 21.3699V2.73355ZM167.987 12.8282L163.102 13.1288C163.019 12.7113 162.839 12.3356 162.564 12.0016C162.288 11.6593 161.925 11.3879 161.474 11.1875C161.031 10.9788 160.501 10.8744 159.883 10.8744C159.057 10.8744 158.36 11.0498 157.792 11.4005C157.224 11.7428 156.94 12.202 156.94 12.7781C156.94 13.2374 157.124 13.6256 157.491 13.9429C157.859 14.2602 158.489 14.5149 159.382 14.7069L162.864 15.4083C164.735 15.7924 166.129 16.4102 167.047 17.2619C167.966 18.1136 168.425 19.2324 168.425 20.6184C168.425 21.8792 168.054 22.9856 167.31 23.9374C166.576 24.8893 165.565 25.6324 164.279 26.1668C163.002 26.6928 161.528 26.9558 159.858 26.9558C157.312 26.9558 155.283 26.4256 153.771 25.3652C152.269 24.2965 151.388 22.8436 151.129 21.0067L156.377 20.7312C156.535 21.5077 156.919 22.1005 157.529 22.5096C158.138 22.9104 158.919 23.1108 159.871 23.1108C160.806 23.1108 161.557 22.9313 162.125 22.5723C162.701 22.2049 162.994 21.7331 163.002 21.157C162.994 20.6727 162.789 20.2761 162.388 19.9672C161.987 19.6499 161.37 19.4077 160.535 19.2408L157.203 18.577C155.324 18.2012 153.926 17.55 153.007 16.6231C152.097 15.6963 151.642 14.5149 151.642 13.0787C151.642 11.843 151.976 10.7784 152.644 9.885C153.321 8.99159 154.268 8.30275 155.487 7.81847C156.715 7.33419 158.151 7.09205 159.796 7.09205C162.225 7.09205 164.138 7.60555 165.532 8.63256C166.935 9.65956 167.753 11.0581 167.987 12.8282Z" fill="black"/>
</svg>
