<svg width="182" height="47" viewBox="0 0 182 47" fill="none" xmlns="http://www.w3.org/2000/svg">
<path d="M62.8251 32.7849H56.1349V13.9123H62.8804C64.7787 13.9123 66.4129 14.2901 67.7829 15.0458C69.1528 15.7953 70.2064 16.8734 70.9436 18.2803C71.687 19.6871 72.0587 21.3704 72.0587 23.3302C72.0587 25.2961 71.687 26.9855 70.9436 28.3985C70.2064 29.8115 69.1467 30.8958 67.7644 31.6515C66.3883 32.4071 64.7419 32.7849 62.8251 32.7849ZM60.1251 29.3661H62.6592C63.8388 29.3661 64.8309 29.1572 65.6357 28.7395C66.4467 28.3156 67.0549 27.6613 67.4603 26.7766C67.8719 25.8858 68.0777 24.737 68.0777 23.3302C68.0777 21.9356 67.8719 20.796 67.4603 19.9114C67.0549 19.0267 66.4497 18.3755 65.6449 17.9578C64.8402 17.54 63.848 17.3311 62.6685 17.3311H60.1251V29.3661ZM82.5708 13.9123H86.5149V27.0715C86.5149 28.2879 86.2415 29.3446 85.6948 30.2415C85.1542 31.1385 84.4016 31.8296 83.4371 32.3149C82.4725 32.8003 81.3514 33.0429 80.0735 33.0429C78.937 33.0429 77.9049 32.8433 76.9773 32.444C76.0557 32.0385 75.3247 31.4241 74.7841 30.6009C74.2434 29.7716 73.9762 28.7303 73.9823 27.477H77.9541C77.9663 27.9746 78.0677 28.4016 78.2582 28.7579C78.4547 29.1081 78.722 29.3784 79.0599 29.5688C79.4039 29.7531 79.8094 29.8453 80.2763 29.8453C80.7677 29.8453 81.1824 29.7408 81.5203 29.532C81.8643 29.3169 82.1254 29.0036 82.3036 28.592C82.4818 28.1804 82.5708 27.6736 82.5708 27.0715V13.9123ZM112.472 20.5196H108.435C108.362 19.9974 108.211 19.5335 107.984 19.1281C107.757 18.7165 107.465 18.3663 107.108 18.0776C106.752 17.7888 106.341 17.5677 105.874 17.4141C105.413 17.2605 104.912 17.1837 104.372 17.1837C103.395 17.1837 102.544 17.4264 101.819 17.9117C101.094 18.3909 100.532 19.0912 100.133 20.0127C99.7333 20.9281 99.5336 22.0401 99.5336 23.3486C99.5336 24.694 99.7333 25.8244 100.133 26.7398C100.538 27.6552 101.103 28.3463 101.828 28.8132C102.553 29.2801 103.392 29.5135 104.344 29.5135C104.878 29.5135 105.373 29.4429 105.828 29.3016C106.288 29.1603 106.697 28.9545 107.053 28.6842C107.409 28.4077 107.704 28.0729 107.938 27.6797C108.177 27.2865 108.343 26.8381 108.435 26.3343L112.472 26.3527C112.367 27.219 112.106 28.0545 111.688 28.8593C111.277 29.6579 110.721 30.3736 110.02 31.0064C109.326 31.633 108.497 32.1306 107.532 32.4992C106.574 32.8617 105.49 33.0429 104.279 33.0429C102.596 33.0429 101.091 32.662 99.764 31.9003C98.4431 31.1385 97.3988 30.0357 96.6308 28.592C95.8691 27.1483 95.4882 25.4005 95.4882 23.3486C95.4882 21.2906 95.8752 19.5397 96.6493 18.096C97.4233 16.6523 98.4739 15.5526 99.8008 14.797C101.128 14.0352 102.621 13.6543 104.279 13.6543C105.373 13.6543 106.387 13.8079 107.32 14.115C108.26 14.4222 109.093 14.8707 109.818 15.4605C110.543 16.0441 111.132 16.7598 111.587 17.6076C112.048 18.4554 112.343 19.426 112.472 20.5196ZM119.185 24.6019V32.7849H115.259V13.9123H119.074V21.1278H119.24C119.56 20.2923 120.076 19.638 120.788 19.1649C121.501 18.6858 122.395 18.4462 123.47 18.4462C124.453 18.4462 125.31 18.6612 126.041 19.0912C126.778 19.5151 127.349 20.1264 127.755 20.925C128.167 21.7175 128.369 22.6667 128.363 23.7725V32.7849H124.438V24.4729C124.444 23.6005 124.222 22.9216 123.774 22.4363C123.332 21.951 122.711 21.7083 121.913 21.7083C121.378 21.7083 120.905 21.822 120.493 22.0493C120.088 22.2766 119.769 22.6083 119.535 23.0445C119.308 23.4746 119.191 23.9937 119.185 24.6019ZM135.489 33.0522C134.586 33.0522 133.781 32.8955 133.074 32.5822C132.368 32.2627 131.809 31.7927 131.397 31.1723C130.992 30.5456 130.789 29.7654 130.789 28.8316C130.789 28.0453 130.933 27.3848 131.222 26.8504C131.511 26.3159 131.904 25.8858 132.402 25.5602C132.899 25.2346 133.465 24.9889 134.097 24.823C134.736 24.6572 135.406 24.5404 136.106 24.4729C136.929 24.3869 137.593 24.307 138.097 24.2333C138.6 24.1534 138.966 24.0367 139.193 23.8831C139.421 23.7295 139.534 23.5022 139.534 23.2012V23.1459C139.534 22.5623 139.35 22.1107 138.981 21.7913C138.619 21.4718 138.103 21.3121 137.433 21.3121C136.727 21.3121 136.165 21.4687 135.747 21.782C135.329 22.0892 135.053 22.4762 134.917 22.9431L131.287 22.6483C131.471 21.7882 131.833 21.0448 132.374 20.4182C132.915 19.7854 133.612 19.3001 134.466 18.9622C135.326 18.6182 136.321 18.4462 137.452 18.4462C138.238 18.4462 138.991 18.5383 139.709 18.7226C140.434 18.9069 141.076 19.1926 141.635 19.5796C142.2 19.9667 142.646 20.4643 142.971 21.0725C143.297 21.6745 143.46 22.3964 143.46 23.238V32.7849H139.737V30.8221H139.626C139.399 31.2644 139.095 31.6545 138.714 31.9924C138.333 32.3242 137.875 32.5853 137.341 32.7757C136.807 32.96 136.189 33.0522 135.489 33.0522ZM136.613 30.3429C137.19 30.3429 137.7 30.2292 138.143 30.0019C138.585 29.7685 138.932 29.4552 139.184 29.062C139.436 28.6688 139.562 28.2234 139.562 27.7258V26.2237C139.439 26.3036 139.27 26.3773 139.055 26.4449C138.846 26.5063 138.61 26.5647 138.345 26.62C138.081 26.6691 137.817 26.7152 137.553 26.7582C137.289 26.7951 137.049 26.8289 136.834 26.8596C136.373 26.9272 135.971 27.0347 135.627 27.1821C135.283 27.3296 135.016 27.5292 134.825 27.7811C134.635 28.0268 134.54 28.334 134.54 28.7026C134.54 29.2371 134.733 29.6456 135.12 29.9282C135.513 30.2047 136.011 30.3429 136.613 30.3429ZM146.505 32.7849V18.6305H150.311V21.1001H150.459C150.717 20.2216 151.15 19.5581 151.758 19.1097C152.366 18.655 153.067 18.4277 153.859 18.4277C154.056 18.4277 154.268 18.44 154.495 18.4646C154.722 18.4892 154.922 18.523 155.094 18.566V22.0493C154.91 21.994 154.655 21.9448 154.329 21.9018C154.004 21.8588 153.706 21.8373 153.435 21.8373C152.858 21.8373 152.342 21.9633 151.887 22.2152C151.439 22.4609 151.082 22.8049 150.818 23.2472C150.56 23.6896 150.431 24.1995 150.431 24.777V32.7849H146.505ZM165.362 18.6305V21.5793H156.838V18.6305H165.362ZM158.773 15.2393H162.699V28.4354C162.699 28.7978 162.754 29.0804 162.865 29.2832C162.975 29.4798 163.129 29.618 163.325 29.6978C163.528 29.7777 163.762 29.8176 164.026 29.8176C164.21 29.8176 164.394 29.8023 164.579 29.7716C164.763 29.7347 164.904 29.7071 165.003 29.6886L165.62 32.6098C165.423 32.6713 165.147 32.7419 164.791 32.8218C164.434 32.9078 164.001 32.96 163.491 32.9784C162.545 33.0153 161.716 32.8894 161.003 32.6006C160.297 32.3119 159.747 31.8634 159.354 31.2552C158.96 30.647 158.767 29.8791 158.773 28.9514V15.2393ZM179.519 22.6667L175.925 22.8879C175.863 22.5807 175.731 22.3042 175.529 22.0585C175.326 21.8066 175.059 21.607 174.727 21.4595C174.401 21.3059 174.011 21.2291 173.556 21.2291C172.948 21.2291 172.435 21.3581 172.018 21.6162C171.6 21.868 171.391 22.2059 171.391 22.6298C171.391 22.9677 171.526 23.2534 171.796 23.4868C172.067 23.7203 172.531 23.9077 173.188 24.049L175.75 24.565C177.126 24.8476 178.152 25.3022 178.828 25.9289C179.503 26.5555 179.841 27.3787 179.841 28.3985C179.841 29.3262 179.568 30.1402 179.021 30.8405C178.48 31.5409 177.737 32.0876 176.791 32.4808C175.851 32.8678 174.767 33.0614 173.538 33.0614C171.664 33.0614 170.171 32.6713 169.06 31.891C167.954 31.1047 167.306 30.0357 167.115 28.6842L170.976 28.4814C171.093 29.0528 171.376 29.489 171.824 29.79C172.273 30.0849 172.847 30.2323 173.547 30.2323C174.235 30.2323 174.788 30.1002 175.206 29.8361C175.63 29.5658 175.845 29.2187 175.851 28.7948C175.845 28.4384 175.694 28.1466 175.4 27.9193C175.105 27.6859 174.65 27.5077 174.036 27.3848L171.584 26.8964C170.202 26.62 169.173 26.1408 168.497 25.4589C167.828 24.777 167.493 23.9077 167.493 22.851C167.493 21.9418 167.739 21.1585 168.23 20.5011C168.728 19.8438 169.425 19.337 170.322 18.9806C171.225 18.6243 172.282 18.4462 173.492 18.4462C175.28 18.4462 176.687 18.824 177.713 19.5796C178.745 20.3353 179.347 21.3643 179.519 22.6667Z" fill="white"/>
<path d="M41.51 5.19974C41.1712 4.86134 40.7117 4.6709 40.2325 4.6709C39.7533 4.6709 39.2938 4.86133 38.9549 5.19974L35.2245 8.93022C31.5192 5.88118 26.7828 4.37496 21.9971 4.723C17.2114 5.0715 12.7432 7.24783 9.51879 10.8009C6.29401 14.3541 4.55996 19.0119 4.67641 23.8088C4.79243 28.6057 6.74978 33.174 10.1427 36.5669C13.5355 39.9598 18.1039 41.9171 22.9008 42.0331C27.6978 42.1496 32.3556 40.4155 35.9086 37.1907C39.4617 33.9664 41.638 29.4982 41.9865 24.7124C42.3346 19.9268 40.8284 15.1904 37.7793 11.4851L41.5098 7.7546C41.8482 7.41578 42.0386 6.95629 42.0386 6.47706C42.0386 5.99784 41.8482 5.53834 41.5098 5.19953L41.51 5.19974ZM38.4244 23.3517C38.4277 27.9301 36.349 32.2613 32.7753 35.123C29.202 37.985 24.5211 39.0666 20.0537 38.0627C15.5867 37.0584 11.8188 34.0783 9.81366 29.9623C7.80799 25.8467 7.7828 21.0425 9.74472 16.906C11.7066 12.7694 15.443 9.74941 19.899 8.69841C24.3546 7.64745 29.047 8.67949 32.6507 11.5032L29.3121 14.8418L31.8671 17.3969L35.2058 14.0582L35.2062 14.0586C37.2935 16.7063 38.4272 19.9801 38.4242 23.3517L38.4244 23.3517Z" fill="white"/>
<path d="M23.358 16.7223C21.6 16.7223 19.9138 17.421 18.6703 18.664C17.4272 19.9076 16.7285 21.5937 16.7285 23.3518C16.7285 25.1098 17.4272 26.796 18.6703 28.0395C19.9138 29.2826 21.6 29.9813 23.358 29.9813C25.1161 29.9813 26.8022 29.2826 28.0457 28.0395C29.2888 26.796 29.9875 25.1098 29.9875 23.3518C29.9875 21.5937 29.2888 19.9076 28.0457 18.664C26.8022 17.4209 25.1161 16.7223 23.358 16.7223V16.7223ZM23.358 26.3651C22.5589 26.3651 21.7925 26.0477 21.2271 25.4827C20.6621 24.9173 20.3447 24.1509 20.3447 23.3518C20.3447 22.5526 20.6621 21.7862 21.2271 21.2208C21.7925 20.6558 22.5588 20.3384 23.358 20.3384C24.1572 20.3384 24.9235 20.6558 25.489 21.2208C26.054 21.7862 26.3713 22.5526 26.3713 23.3518C26.3713 24.1509 26.054 24.9173 25.489 25.4827C24.9235 26.0477 24.1572 26.3651 23.358 26.3651Z" fill="white"/>
</svg>
