<svg width="47" height="47" viewBox="0 0 47 47" fill="none" xmlns="http://www.w3.org/2000/svg">
<path d="M41.51 5.19974C41.1712 4.86134 40.7117 4.6709 40.2325 4.6709C39.7533 4.6709 39.2938 4.86133 38.9549 5.19974L35.2245 8.93022C31.5192 5.88118 26.7828 4.37496 21.9971 4.723C17.2114 5.0715 12.7432 7.24783 9.51879 10.8009C6.29401 14.3541 4.55996 19.0119 4.67641 23.8088C4.79243 28.6057 6.74978 33.174 10.1427 36.5669C13.5355 39.9598 18.1039 41.9171 22.9008 42.0331C27.6978 42.1496 32.3556 40.4155 35.9086 37.1907C39.4617 33.9664 41.638 29.4982 41.9865 24.7124C42.3346 19.9268 40.8284 15.1904 37.7793 11.4851L41.5098 7.7546C41.8482 7.41578 42.0386 6.95629 42.0386 6.47706C42.0386 5.99784 41.8482 5.53834 41.5098 5.19953L41.51 5.19974ZM38.4244 23.3517C38.4277 27.9301 36.349 32.2613 32.7753 35.123C29.202 37.985 24.5211 39.0666 20.0537 38.0627C15.5867 37.0584 11.8188 34.0783 9.81366 29.9623C7.80799 25.8467 7.7828 21.0425 9.74472 16.906C11.7066 12.7694 15.443 9.74941 19.899 8.69841C24.3546 7.64745 29.047 8.67949 32.6507 11.5032L29.3121 14.8418L31.8671 17.3969L35.2058 14.0582L35.2062 14.0586C37.2935 16.7063 38.4272 19.9801 38.4242 23.3517L38.4244 23.3517Z" fill="white"/>
<path d="M23.358 16.7223C21.6 16.7223 19.9138 17.421 18.6703 18.664C17.4272 19.9076 16.7285 21.5937 16.7285 23.3518C16.7285 25.1098 17.4272 26.796 18.6703 28.0395C19.9138 29.2826 21.6 29.9813 23.358 29.9813C25.1161 29.9813 26.8022 29.2826 28.0457 28.0395C29.2888 26.796 29.9875 25.1098 29.9875 23.3518C29.9875 21.5937 29.2888 19.9076 28.0457 18.664C26.8022 17.4209 25.1161 16.7223 23.358 16.7223V16.7223ZM23.358 26.3651C22.5589 26.3651 21.7925 26.0477 21.2271 25.4827C20.6621 24.9173 20.3447 24.1509 20.3447 23.3518C20.3447 22.5526 20.6621 21.7862 21.2271 21.2208C21.7925 20.6558 22.5588 20.3384 23.358 20.3384C24.1572 20.3384 24.9235 20.6558 25.489 21.2208C26.054 21.7862 26.3713 22.5526 26.3713 23.3518C26.3713 24.1509 26.054 24.9173 25.489 25.4827C24.9235 26.0477 24.1572 26.3651 23.358 26.3651Z" fill="white"/>
</svg>
